<?xml version="1.0" encoding="utf-8"?>
<!-- Generator: Adobe Illustrator 16.0.4, SVG Export Plug-In . SVG Version: 6.00 Build 0)  -->
<!DOCTYPE svg PUBLIC "-//W3C//DTD SVG 1.1//EN" "http://www.w3.org/Graphics/SVG/1.1/DTD/svg11.dtd">
<svg version="1.1" xmlns="http://www.w3.org/2000/svg" xmlns:xlink="http://www.w3.org/1999/xlink" x="0px" y="0px" width="118px"
	 height="30px" viewBox="0 0 118 30" style="enable-background:new 0 0 118 30;" xml:space="preserve">
<style type="text/css">
<![CDATA[
	.st0{fill:#FFFFFF;}
]]>
</style>
<g id="Laag_1">
	<g>
		<path class="st0" d="M65.854,21.634v5.63c-3.165,1.589-6.141,2.383-9.116,2.383c-8.252,0-13.213-4.837-13.213-10.987
			c0-6.628,5.676-12.1,12.895-12.1c1.786,0,3.136,0.317,4.551,0.785c1.014,0.318,1.639,0.682,2.274,0.682
			c0.557,0,0.711-0.926,0.79-1.467h0.788l0.715,7.615h-0.952c-0.391-1.507-1.105-2.742-2.058-3.61
			C61.047,9.057,59,8.262,56.659,8.262c-4.96,0-7.854,3.929-7.854,9.842c0,5.831,3.531,9.795,8.25,9.795
			c1.388,0,2.659-0.317,4.212-1.031v-5.792c0-1.861-0.296-2.577-2.982-2.577v-0.871h9.964v0.871
			C65.774,18.499,65.854,19.293,65.854,21.634z M38.412,12.35v16.902h-1.308L20.201,11.794c0.079,0.476,0.079,0.873,0.079,1.348
			v10.635c0,3.249,0,4.438,2.976,4.438v0.871h-7.935v-0.871c3.007,0,3.007-1.428,3.007-4.438V11.653c0-1.801,0-3.778-3.165-3.778
			V7.041h7.483l13.901,14.274c-0.08-0.396-0.08-0.633-0.08-1.188V12.35c0-3.135,0.08-4.475-2.905-4.475V7.041h7.934v0.834
			C38.568,7.875,38.412,9.137,38.412,12.35z M0,29.087v-0.871c1.906,0,3.256-0.158,3.256-2.919V10.802
			c0-2.857-1.032-2.927-3.256-2.927V7.041h11.176v0.834c-2.29,0-3.242,0.07-3.242,2.927v14.495c0,2.761,1.193,2.919,3.242,2.919
			v0.871H0z"/>
		<g>
			<g>
				<path class="st0" d="M103.379,4.98c0.328,0.341,0.501,0.573,0.625,0.733c0.338,0.396,0.93,1.052,1.326,1.568
					c0.062-0.06,0.176-0.147,0.313-0.184c0.438-0.123,0.595-0.157,0.751-0.194c0.129-0.029,0.357-0.078,0.363-0.081
					c0.029-0.009,0.066-0.046,0.062-0.062c-0.042-0.158-0.138-0.288-0.246-0.415c-0.055-0.066-0.31-0.241-0.162-0.246
					c0.013,0,0.101,0.001,0.139,0c0.058-0.005,0.291-0.037,0.419-0.073c0.318-0.074,0.828-0.144,1.005-0.024
					c0.318,0.212,0.488,0.529,0.738,0.791c-0.179-0.034-0.35-0.107-0.525-0.121c-0.419-0.032-0.84,0.033-1.254,0.121
					c0.063,0.042,0.168,0.192,0.18,0.207c0.164,0.206,0.431,0.284,0.554,0.525c-0.102-0.047-0.206-0.047-0.313-0.028
					c-0.027,0.005-0.193,0.03-0.239,0.041c-0.224,0.044-0.641,0.074-0.726,0.085c-0.17,0.023-0.36,0.027-0.502,0.111
					c0.283,0.21,1.65,0.674,2.303,0.674c0.653,0,1.051-0.033,1.568-0.295c0.089-0.044,0.188-0.117,0.274-0.084
					c0.28,0.105,0.453,0.207,0.639,0.321c1.94,1.195,4.153,4.11,4.846,5.624c1.505,3.293,1.447,7.296-0.904,10.295
					c-0.779,0.997-2.192,1.804-3.737,1.949c-0.024,0.003-0.049,0.033-0.033,0.065c0.337,0.663,0.695,1.284,0.946,1.984
					c0.015,0.043,0.073,0.098,0.093,0.094c0.3-0.071,0.467-0.109,0.702-0.267c0.015-0.183-0.192-0.7-0.221-0.809
					c-0.017-0.052-0.117-0.485-0.159-0.589c-0.03-0.076,0.06-0.124,0.145-0.142c0.312-0.064,0.428-0.166,0.724-0.203
					c0.069,0.18,0.184,0.332,0.271,0.501c0.022,0.04,0.229,0.495,0.356,0.65c0.274-0.122,0.547-0.309,0.732-0.523
					c0.013-0.152-0.058-0.296-0.124-0.427c-0.136-0.267-0.2-0.562-0.225-0.863c0.17-0.076,0.422-0.244,0.529-0.342
					c0.04-0.035,0.11-0.073,0.164-0.035c0.044,0.033,0.086,0.071,0.123,0.124c0.143,0.207,0.388,0.326,0.442,0.602
					c0.006,0.027,0.039,0.052,0.063,0.03c0.249-0.215,0.46-0.463,0.631-0.728c-0.166-0.283-0.351-0.528-0.545-0.812
					c-0.029-0.043-0.004-0.095,0.044-0.146c0.122-0.133,0.297-0.433,0.378-0.585c0.024,0.007,0.214,0.095,0.241,0.104
					c0.164,0.095,0.316,0.177,0.509,0.359c0.233-0.294,0.39-0.617,0.487-1.013c-0.066-0.076-0.306-0.283-0.33-0.302
					c-0.102-0.083-0.172-0.143-0.265-0.234c0.142-0.256,0.217-0.55,0.387-0.789c0.187,0.084,0.349,0.207,0.522,0.315
					c0.13-0.312,0.297-0.764,0.315-1.047c-0.166-0.15-0.364-0.262-0.525-0.419c0.051-0.33,0.023-0.45,0.058-0.697
					c0.009-0.061,0.032-0.087,0.077-0.083c0.015,0,0.396,0.087,0.529,0.083c0.074-0.404,0.1-0.867,0.069-1.221
					c-0.087-0.05-0.17-0.093-0.267-0.13c-0.13-0.027-0.189-0.05-0.291-0.044c0.023-0.278-0.034-0.558,0-0.838
					c0.161-0.023,0.477,0.062,0.479-0.045c0.011-0.451-0.037-0.845-0.129-1.104c-0.181-0.103-0.391-0.162-0.593-0.211
					c-0.044-0.22-0.074-0.444-0.141-0.661c0.157-0.053,0.326-0.026,0.488-0.073c0.025-0.008,0.04-0.032,0.033-0.067
					c-0.073-0.402-0.143-0.579-0.277-0.87c-0.163-0.09-0.342-0.106-0.522-0.106c-0.068-0.163-0.161-0.316-0.21-0.487
					c0.12-0.107,0.294-0.11,0.418-0.21c-0.102-0.335-0.182-0.489-0.35-0.697c-0.159-0.027-0.322-0.045-0.485-0.035
					c-0.076-0.148-0.17-0.269-0.211-0.453c0.11-0.08,0.247-0.118,0.349-0.209c-0.113-0.266-0.225-0.437-0.383-0.627
					c-0.177-0.015-0.333,0.07-0.503,0.04c-0.025-0.003-0.258-0.304-0.22-0.344c0.133-0.141,0.216-0.214,0.305-0.323
					c-0.18-0.281-0.317-0.467-0.523-0.662c-0.163,0.027-0.36,0.068-0.466,0.042c-0.094-0.024-0.16-0.147-0.229-0.254
					c-0.022-0.037-0.032-0.059,0-0.093c0.078-0.079,0.134-0.133,0.201-0.221c0.013-0.014,0.013-0.048,0-0.063
					c-0.245-0.333-0.472-0.564-0.763-0.839c-0.148,0.017-0.331,0.183-0.394,0.132c-0.119-0.093-0.186-0.125-0.302-0.25
					c-0.024-0.023-0.024-0.087,0.002-0.114c0.024-0.078,0.119-0.148,0.17-0.223c-0.216-0.29-0.48-0.513-0.801-0.732
					c-0.155,0.032-0.286,0.146-0.453,0.14c-0.265-0.194-0.531-0.274-0.307-0.516c0.012-0.013,0.13-0.113,0.093-0.143
					c-0.355-0.285-0.497-0.384-0.865-0.636c-0.24-0.165-0.383-0.392-0.545-0.634c-0.546-0.819-1.238-2.043-2.911-2.284
					c-0.021-0.003-0.051,0.033-0.029,0.06c0.235,0.301,0.445,0.578,0.622,0.911c0.017,0.031,0.038,0.084-0.319,0.041
					c-0.19-0.017-0.293,0.004-0.474-0.009c-0.135-0.01-0.275-0.317-0.336-0.467c-0.104-0.255-0.15-0.366-0.379-0.525
					c-0.08-0.056-0.173-0.033-0.266,0C105.363,4.31,104.452,4.736,103.379,4.98z"/>
				<path class="st0" d="M80.607,2.235c-0.221,0.212-0.339,0.467-0.509,0.723c0.043,0.027,0.358,0.199,0.36,0.2
					c0.225,0.14,0.336,0.16,0.363,0.139c0.088-0.068,0.548-0.638,0.619-0.771c0.503-0.264,1.387-0.842,1.724-1.103
					c0.097,0.093,0.956,0.641,1.358,0.916c0.299,0.206,0.618,0.282,0.873,0.446c0.184-0.271,0.311-0.567,0.449-0.86
					c0.011-0.021,0.051-0.136,0.066-0.166c0.191,0.16,0.523,0.131,0.698,0.266c0.027,0.021,0.03,0.021,0.012,0.101
					c-0.061,0.248-0.006,0.53,0.066,0.796c0.016,0.053,0.063,0.04,0.104,0.038c0.076-0.005,0.253-0.085,0.411-0.134
					c0.444-0.137,0.896-0.21,1.11-0.314c0.241-0.12,0.44-0.308,0.66-0.47c0.156-0.115,0.326-0.249,0.46-0.347
					c0.058-0.04,0.062-0.061,0.165-0.065c0.131,0.019,0.505,0.15,0.664,0.204c0.225,0.075,0.453,0.126,0.519,0.148
					c0.251,0.085,0.602,0.212,0.669,0.19c0.14-0.045,0.502-0.319,0.745-0.503c-0.721-0.436-1.43-0.892-2.235-1.173
					c-0.037-0.013-0.057,0.005-0.1,0.058c-0.067,0.06-0.534,0.472-0.625,0.556c-0.064,0.06-0.158,0.071-0.249,0.073
					c-0.046,0.002-0.038-0.24-0.048-0.352c-0.011-0.147,0.087-0.364-0.033-0.42c-0.109-0.048-0.545-0.079-0.574-0.035
					c-0.138,0.198-0.153,0.439-0.201,0.696c-0.03,0.151-0.043,0.508-0.412,0.66c-0.133,0.076-0.247,0.065-0.298,0.077
					c0.006-0.094-0.043-0.574-0.043-0.668c0-0.04-0.08-0.489-0.117-0.57c-0.07-0.139-0.304,0.065-0.458,0.146
					c-0.117,0.061-0.565,0.328-0.601,0.331c-0.029,0.002-0.211-0.097-0.293-0.131c-0.271-0.118-0.368-0.157-0.65-0.258
					c-0.129,0.423-0.272,0.906-0.306,1.001c-0.007,0.021-0.045,0.021-0.068-0.001c-0.007-0.006-0.749-0.74-1.09-1.174
					c-0.729,0.163-1.431,0.432-2.159,0.609C81.308,1.408,80.948,1.832,80.607,2.235z"/>
				<path class="st0" d="M93.195,4.889c0.063,0.027,0.407,0.154,0.492,0.152c0.048-0.001,0.091-0.004,0.094-0.04
					c0.02-0.216-0.06-0.423-0.103-0.627c-0.116-0.547-0.337-1.075-0.438-1.661c-0.014-0.081-0.004-0.233,0-0.314
					c-0.308-0.178-0.652-0.269-0.978-0.414c-0.031-0.013-0.093-0.02-0.097,0.03c-0.005,0.24,0.113,0.475,0.198,0.652
					c0.13,0.269,0.308,0.727,0.361,0.848c0.021,0.049,0.075,0.315,0.06,0.457c-0.021,0.23,0.104,0.452,0.137,0.689
					C92.944,4.82,93.013,4.806,93.195,4.889z"/>
				<path class="st0" d="M93.325,5.517c-0.113,0.104-0.361,0.289-0.283,0.367c0.098,0.098,0.255,0.142,0.377,0.216
					c0.193,0.114,0.359,0.251,0.542,0.395c0.367,0.288,0.491,0.668,0.889,0.93c0.136,0.09,0.228,0.146,0.308,0.201
					c0.021,0.015,0.34,0.206,0.386,0.247c0.002-0.281-0.125-0.564-0.18-0.831c-0.033-0.159-0.066-0.359-0.131-0.476
					c-0.06-0.09-0.112-0.145-0.24-0.248C94.726,6.1,94.506,5.868,94.467,5.83c-0.228-0.21-0.427-0.442-0.634-0.675
					C93.615,5.202,93.476,5.374,93.325,5.517z"/>
				<path class="st0" d="M94.307,7.718c-0.071-0.038-0.294-0.109-0.622-0.19c-0.093-0.023-0.266-0.127-0.337-0.101
					c-0.063,0.022-0.051,0.095-0.027,0.131c0.099,0.162,0.15,0.292,0.195,0.411c0.036,0.094,0.175,0.504,0.249,0.639
					c0.155,0.019,0.391,0.082,0.514,0.118c0.089,0.027,0.588,0.239,0.799,0.363c0.101,0.061,0.593,0.504,0.648,0.542
					c0.27,0.186,0.463,0.339,0.643,0.271c0.107-0.04,0.002-0.225-0.048-0.308c-0.278-0.474-0.501-1.276-0.616-1.328
					c-0.18-0.081-0.325,0.038-0.648-0.148C94.862,8.007,94.404,7.771,94.307,7.718z"/>
				<path class="st0" d="M92.374,8.363c-0.107,0.207-0.327,0.406-0.227,0.615c0.134,0.279,0.133,0.603,0.318,0.827
					c0.196,0.24,0.572,0.181,0.814,0.399c0.024,0.022,0.062-0.006,0.06-0.029c-0.029-0.513-0.243-0.972-0.396-1.459
					c-0.076-0.247-0.247-0.456-0.399-0.668C92.463,8.14,92.43,8.255,92.374,8.363z"/>
				<path class="st0" d="M80.277,7.163c-0.396,0.081-1.08,0.323-1.09,0.468c-0.021,0.224-0.03,0.769-0.024,0.83
					c0.021,0.206,0.082,0.441,0.167,0.633c0.181-0.208,0.29-0.291,0.395-0.382c0.062-0.051,0.906-0.675,0.982-0.729
					c0.158-0.116,0.286-0.104,0.296-0.243c0.026-0.406,0.163-0.421,0.095-0.553C81.015,7.023,80.459,7.126,80.277,7.163z"/>
				<path class="st0" d="M79.604,7.026c0.285-0.248,0.455-0.369,0.837-0.743c0.097-0.094,0.135-0.05,0.377-0.19
					c0.102-0.058,0.166-0.145,0.16-0.207c-0.01-0.159-0.069-0.301-0.164-0.501c-0.057-0.116-0.233-0.499-0.242-0.604
					c-0.009-0.097,0.009-0.407,0.021-0.468c0.038-0.204,0.081-0.397,0.122-0.617c0.004-0.048,0.01-0.097,0.01-0.146
					c-0.048-0.011-0.094-0.015-0.139-0.015c-0.051,0-0.401,0.079-0.628,0.133c-0.043,0.011-0.124,0.033-0.132,0.093
					c-0.025,0.223-0.054,0.445-0.054,0.662c0,0.301,0.109,0.591,0.173,0.909c0.017,0.076,0.05,0.188-0.01,0.218
					c-0.023,0.013-0.13,0.072-0.151,0.085c-0.228,0.134-0.416,0.312-0.627,0.461c0.091,0.4,0.015,0.806,0.073,1.22
					c0.003,0.026,0.04,0.055,0.062,0.032C79.434,7.189,79.483,7.131,79.604,7.026z"/>
				<path class="st0" d="M80.652,8.923c-0.229,0.091-0.359,0.154-0.56,0.238C79.857,9.28,79.635,9.344,79.5,9.429
					c-0.328,0.205-0.514,0.383-0.897,0.615c0.013,0.405,0.031,0.475,0.054,0.701c0.032,0.227,0.099,0.694,0.096,0.755
					c0.006,0.045,0.014,0.091,0.021,0.139c0.154-0.254,0.561-0.705,0.834-0.99c0.17-0.174,0.438-0.512,1.204-0.906
					C80.895,9.7,80.893,9.7,80.9,9.65c0.038-0.258,0.057-0.522,0.062-0.786C80.964,8.777,80.75,8.885,80.652,8.923z"/>
				<path class="st0" d="M94.682,10.811c-0.064-0.034-0.183-0.051-0.256-0.071c-0.183-0.051-0.533-0.096-0.533-0.075
					c-0.007,0.133-0.035,0.283-0.045,0.429c-0.004,0.038,0.026,0.252,0.063,0.326c0.02,0.042,0.38,0.786,0.438,0.886
					c0.081,0.144,0.202,0.253,0.328,0.286c0.183,0.048,0.396,0.184,0.552,0.129c-0.04-0.187-0.141-0.371-0.178-0.556
					c-0.082-0.413-0.25-0.604-0.304-0.866c-0.013-0.068,0.018-0.139,0.021-0.207C94.778,10.92,94.715,10.828,94.682,10.811z"/>
				<path class="st0" d="M78.873,11.925c-0.063,0.019-0.07,0.189-0.061,0.407c0.006,0.101,0.08,0.935,0.121,1.182
					c0.043,0.247,0.094,0.442,0.148,0.648c0.048,0.185,0.108,0.34,0.148,0.458c0.021,0.062,0.125-0.053,0.207-0.164
					c0.124-0.173,0.328-0.498,0.447-0.7c0.037-0.064,0.036-0.053,0.018-0.129c-0.108-0.458-0.231-0.975-0.24-1.11
					c-0.016-0.254,0.126-0.801,0.162-0.902c0.027-0.073,0.047-0.243,0.006-0.224C79.531,11.53,79.227,11.821,78.873,11.925z"/>
				<path class="st0" d="M80.214,14.214c-0.062,0.043-0.427,0.308-0.55,0.405c-0.12,0.095-0.258,0.167-0.403,0.229
					c0.049,0.144,0.113,0.24,0.152,0.386c0.033,0.118,0.024,0.228,0.073,0.406c0.035,0.126,0.039,0.315,0.068,0.447
					c0.014,0.052,0.117,0.022,0.133-0.003c0.066-0.107,0.037-0.177,0.096-0.276c0.31-0.468,0.783-0.883,0.872-0.96
					c-0.099-0.224-0.167-0.422-0.2-0.682C80.44,14.053,80.333,14.128,80.214,14.214z"/>
				<path class="st0" d="M81.943,14.226c-0.087-0.035-0.234-0.151-0.249-0.038c-0.028,0.19-0.031,0.489-0.028,0.612
					c0.002,0.062,0.012,0.426,0.023,0.588c0.01,0.152,0.081,0.265,0.105,0.319c0.036,0.075,0.164,0.188,0.275,0.251
					c0.224,0.125,0.476,0.216,0.715,0.347c0.029,0.016,0.102,0.016,0.09-0.026c-0.092-0.356-0.29-0.663-0.383-1.018
					c-0.065-0.251,0.04-0.533-0.086-0.748C82.32,14.369,82.117,14.297,81.943,14.226z"/>
				<path class="st0" d="M80.905,16.006c-0.028-0.067-0.099-0.047-0.183-0.016c-0.156,0.057-0.723,0.29-0.896,0.347
					c-0.038,0.014-0.326,0.098-0.392,0.114c0.069,0.128,0.122,0.229,0.169,0.329c0.07,0.098,0.181,0.362,0.221,0.496
					c0.021,0.222,0.125,0.327,0.17,0.43c0.155-0.121,0.274-0.212,0.41-0.334c0.212-0.219,0.598-0.674,0.775-0.816
					C81.058,16.397,80.969,16.158,80.905,16.006z"/>
				<path class="st0" d="M83.768,14.899c-0.103-0.059-0.233-0.192-0.305-0.135c-0.077,0.062-0.088,0.141-0.097,0.228
					c-0.006,0.053,0,0.117,0.003,0.174c0.003,0.12-0.013,0.236-0.063,0.343c0.152,0.184,0.277,0.367,0.371,0.574
					c0.11,0.247,0.186,0.516,0.325,0.752c0.059-0.114,0.082-0.251,0.119-0.378c0.027-0.095,0.073-0.167,0.095-0.271
					c0.028-0.127,0.069-0.224,0.043-0.359c-0.001-0.009-0.048-0.094-0.048-0.102c-0.029-0.159,0.002-0.239-0.051-0.384
					C84.085,15.144,83.961,15.011,83.768,14.899z"/>
				<path class="st0" d="M85.007,13.934c0.037,0.057,0.105,0.213,0.171,0.166c0.207-0.149,0.311-0.337,0.534-0.47
					c0.048-0.028,0.064-0.005,0.061,0.027c-0.013,0.1-0.013,0.156-0.013,0.28c-0.022,0.28-0.044,0.433,0.016,0.659
					c0.056,0.213,0.237,0.141,0.545,0.234c0.11,0.037,0.159-0.062,0.181-0.126c0.049-0.141,0.179-0.471,0.191-0.495
					c0.016-0.039,0.021-0.062,0.066-0.093c0.058,0,0.093,0.079,0.117,0.117c0.132,0.211,0.06,0.541,0.278,0.605
					c0.056,0.017,0.129,0.004,0.204,0.007c0.047,0.001,0.234-0.025,0.27-0.04c0.08-0.033,0.142-0.068,0.176-0.146
					c0.094-0.214,0.092-0.495,0.068-0.752c0.023-0.009,0.033-0.016,0.054-0.016c0.183,0.119,0.399,0.33,0.644,0.609
					c0.093-0.15,0.251-0.464,0.282-0.548c0.112-0.303,0.168-0.628,0.171-0.951c-1.155-0.643-2.6-0.611-3.844-0.163
					c-0.053,0.019-0.411,0.165-0.48,0.197C84.743,13.372,84.834,13.663,85.007,13.934z"/>
				<path class="st0" d="M86.043,17.644c0.001-0.217-0.005-0.272-0.027-0.44c-0.03-0.234,0.028-0.469-0.08-0.672
					c-0.055-0.102-0.188-0.183-0.33-0.181c-0.127,0.001-0.302-0.051-0.417-0.079c-0.071-0.019-0.103-0.102-0.149-0.053
					c-0.029,0.031-0.02,0.13-0.017,0.179c0.011,0.282-0.046,0.301-0.06,0.432c-0.019,0.193,0.08,0.524,0.207,0.729
					c0.066,0.103,0.175,0.152,0.265,0.175c0.011,0.002,0.215,0.089,0.294,0.153c0.187,0.12,0.159,0.043,0.332,0.204
					C86.077,17.969,86.049,17.799,86.043,17.644z"/>
				<path class="st0" d="M86.866,16.251c-0.098,0.036-0.259,0.03-0.262,0.131c-0.008,0.21,0.045,0.426,0.064,0.633
					c0.015,0.168,0.035,0.312,0.053,0.483c0.019,0.188-0.11,0.342-0.035,0.522c0.14-0.142,0.451-0.247,0.553-0.399
					c0.156-0.239,0.239-0.243,0.284-0.438c0.066-0.298,0.082-0.788,0.036-1.185C87.336,16.107,87.127,16.152,86.866,16.251z"/>
				<path class="st0" d="M88.788,15.805c-0.22,0.13-0.629,0.317-0.625,0.397c0.01,0.334,0.041,0.627,0.076,0.791
					c-0.002,0.262-0.043,0.369,0.058,0.423c0.256,0.133,0.35,0.136,0.594,0.296c0.028,0.02,0.292,0.206,0.347,0.222
					c0.044,0.014,0.037-0.08,0.023-0.121c-0.091-0.282-0.207-0.569-0.248-0.855c-0.062-0.411-0.027-0.822-0.027-1.238
					C88.986,15.634,88.854,15.766,88.788,15.805z"/>
				<path class="st0" d="M89.931,15.432c-0.067-0.029-0.188-0.116-0.227-0.032c-0.109,0.247-0.135,0.711-0.063,0.944
					c0.052,0.169,0.43,0.854,0.593,0.983c0.036,0.028,0.448,0.037,0.525,0.013c0.045-0.013,0.154-0.005,0.131-0.042
					c-0.308-0.457-0.392-0.914-0.415-1.008c-0.019-0.07-0.105-0.219-0.128-0.441c-0.018-0.171,0.055-0.21-0.042-0.253
					C90.139,15.524,90.103,15.501,89.931,15.432z"/>
				<path class="st0" d="M91.535,15.106c-0.09-0.07-0.142-0.065-0.351-0.11c-0.106-0.024-0.205-0.058-0.313-0.04
					c-0.026,0.005-0.05,0.034-0.031,0.064c0.146,0.274,0.378,0.545,0.345,0.873c0.072,0.091,0.143,0.099,0.251,0.141
					c0.154,0.058,0.462,0.159,0.619,0.157c0.066,0,0.044-0.105,0.025-0.156c-0.028-0.091-0.058-0.193-0.104-0.275
					C91.882,15.601,91.593,15.149,91.535,15.106z"/>
				<path class="st0" d="M92.603,14.529c-0.133,0.065-0.236,0.09-0.336,0.179c0.173,0.295,0.412,0.529,0.641,0.79
					c0.107,0.122,0.337,0.107,0.501,0.127c0.367,0.044,0.681,0.031,0.714,0.025c0.252-0.055,0.37-0.108,0.514-0.246
					c-0.254-0.128-0.621-0.266-0.94-0.418c-0.298-0.214-0.55-0.346-0.767-0.592C92.781,14.424,92.71,14.479,92.603,14.529z"/>
				<path class="st0" d="M94.182,13.527c-0.104,0-0.215,0.009-0.312,0.064c0.104,0.163,0.289,0.653,0.308,0.683
					c0.083,0.135,0.091,0.254,0.251,0.28c0.365,0.058,0.727,0.038,1.081,0.148c0.035,0.011,0.109,0.007,0.091-0.025
					c-0.148-0.259-0.225-0.187-0.305-0.288c-0.08-0.099-0.283-0.449-0.336-0.525c-0.085-0.125-0.125-0.242-0.219-0.346
					C94.702,13.474,94.371,13.526,94.182,13.527z"/>
				<path class="st0" d="M96.283,15.33c-0.028-0.042-0.028-0.094-0.104-0.048c-0.044,0.025-0.208,0.139-0.387,0.238
					c-0.103,0.06-0.205,0.135-0.284,0.233c0.188,0.161,0.293,0.291,0.504,0.426c0.083,0.053,0.195,0.033,0.385,0.01
					c0.309-0.013,0.522-0.015,0.619-0.021c0.159-0.009,0.274,0.04,0.341-0.101c-0.15-0.066-0.491-0.276-0.514-0.292
					C96.636,15.639,96.43,15.537,96.283,15.33z"/>
				<path class="st0" d="M94.013,16.595c-0.012,0.01-0.012,0.049,0,0.062c0.198,0.226,0.289,0.502,0.525,0.694
					c0.046,0.039,0.095,0.075,0.307,0.035c0.284-0.055,0.497-0.033,0.764-0.062c0.043-0.004,0.336-0.006,0.37-0.018
					c0.03-0.011,0.062-0.028,0.087-0.053c-0.033-0.11-0.051-0.234-0.145-0.262c-0.501-0.147-0.966-0.332-1.285-0.749
					C94.58,16.296,94.114,16.5,94.013,16.595z"/>
				<path class="st0" d="M92.727,17.089c-0.214,0.141-0.46,0.162-0.636,0.339c0.055,0.172,0.142,0.34,0.278,0.468
					c0.117,0.112,0.182,0.252,0.466,0.388c0.417,0.202,0.406,0.154,0.588,0.321c0.029,0.027,0.079,0.073,0.132,0.041
					c0.286-0.175,0.624-0.192,0.942-0.212c0.025-0.002,0.052-0.035,0.031-0.062c-0.143-0.182-0.289-0.315-0.506-0.445
					c-0.323-0.128-0.525-0.281-0.661-0.541c-0.084-0.164-0.167-0.323-0.259-0.48C92.956,16.924,92.849,17.008,92.727,17.089z"/>
				<path class="st0" d="M91.389,18.212c-0.222,0.074-0.447,0.118-0.656,0.227c0.149,0.378,0.28,0.559,0.736,1.005
					c0.02,0.019,0.11,0.07,0.134,0.069c0.442-0.01,0.886,0.059,1.326-0.027c-0.27-0.253-0.352-0.351-0.536-0.502
					c-0.251-0.179-0.403-0.24-0.687-0.579C91.626,18.21,91.548,18.158,91.389,18.212z"/>
				<path class="st0" d="M88.989,18.858c-0.204,0.037-0.403,0.016-0.593,0.104c0.089,0.125,0.08,0.308,0.189,0.405
					c0.299,0.275,0.353,0.374,0.615,0.812c0.099,0.163,0.501,0.237,0.764,0.229c0.131-0.006,0.426-0.156,0.558-0.263
					c-0.218-0.152-0.66-0.56-0.855-0.764c-0.158-0.164-0.094-0.432-0.225-0.595C89.287,18.788,89.158,18.83,88.989,18.858z"/>
				<path class="st0" d="M86.618,19.173c-0.027,0.009-0.38,0.053-0.489,0.138c0.015,0.263-0.02,0.521-0.124,0.764
					c-0.111,0.261-0.472,0.407-0.531,0.806c-0.003,0.022,0.026,0.034,0.063,0.033c0.079-0.004,0.308,0.044,0.345,0.033
					c0.161-0.048,0.304-0.234,0.385-0.285c0.201-0.128,0.387-0.23,0.593-0.344c0.162-0.087,0.138-0.197,0.173-0.363
					c0.001-0.01,0.151-0.604,0.173-0.889c0.001-0.023-0.032-0.047-0.062-0.032C87.051,19.076,86.699,19.147,86.618,19.173z"/>
				<path class="st0" d="M85.048,18.688c-0.15,0.005-0.263,0.015-0.453,0.028c-0.126,0.259-0.248,0.511-0.327,0.799
					c-0.055,0.196-0.2,0.347-0.293,0.53c-0.006,0.015,0.038,0.049,0.059,0.027c0.037-0.039,0.073-0.078,0.135-0.089
					c0.338-0.06,0.511-0.087,0.637-0.082c0.225-0.205,0.365-0.341,0.569-0.578c0,0,0.137-0.314,0.082-0.561
					C85.434,18.65,85.199,18.681,85.048,18.688z"/>
				<path class="st0" d="M83.272,17.719c-0.076,0.021-0.217,0.051-0.385,0.061c-0.056,0.002-0.049,0.079-0.055,0.104
					c-0.022,0.112-0.11,0.657-0.146,0.895c-0.029,0.251-0.121,0.433-0.133,0.457c-0.141,0.31-0.267,0.439-0.399,0.772
					c0.218,0.077,0.611,0.053,0.767-0.002c0.152-0.054,0.247-0.186,0.341-0.319c0.046-0.062,0.241-0.536,0.312-0.723
					c0.074-0.19,0.035-0.464,0-0.553c-0.053-0.137,0.05-0.408,0.005-0.634C83.541,17.597,83.394,17.683,83.272,17.719z"/>
				<path class="st0" d="M80.826,17.813c-0.267,0.008-0.804,0.055-0.788,0.098c0.054,0.138,0.094,0.291,0.143,0.418
					c0.066,0.165,0.169,0.352,0.19,0.681c0.017,0.247,0.028,0.493-0.023,0.756c-0.001,0.02,0.039,0.053,0.062,0.029
					c0.184-0.194,0.646-0.499,0.723-0.529c0.071-0.029,0.179-0.098,0.213-0.169c0.094-0.194,0.016-0.37,0.039-0.591
					c0.018-0.182,0.048-0.556,0.073-0.729C81.308,17.692,81,17.81,80.826,17.813z"/>
				<path class="st0" d="M74.532,28.985c0.059-0.001,0.072-0.056,0.054-0.086c-0.319-0.521-0.536-0.961-0.294-1.599
					c0.149-0.39,0.476-0.512,0.574-0.6c0.016-0.28-0.086-0.55-0.011-0.83c0.116-0.425,0.613-0.363,1.058-0.319
					c-0.042,0.551-0.168,1.083-0.231,1.639c-0.07,0.609,0.095,1.134,0.233,1.735c0.007,0.026,0.038,0.059,0.062,0.059
					c0.286,0,0.505,0,0.772,0c0.025,0,0.061-0.04,0.056-0.055c-0.067-0.225-0.131-0.399-0.184-0.622
					c-0.057-0.233-0.057-0.408-0.032-0.662c0.028-0.29,0.021-0.566,0.092-0.841c0.094-0.024,0.131,0.009,0.205,0.055
					c0.217,0.13,0.262,0.173,0.43,0.28c0.041,0.026,0.077-0.033,0.039-0.18c-0.095-0.298,0.168-0.536-0.076-0.766
					c-0.143-0.131-0.535-0.02-0.559-0.084c-0.029-0.074,0.056-0.293,0.182-0.569c0.122-0.274,0.169-0.344,0.33-0.617
					c0.06-0.032,0.352-0.015,0.598,0.017c0.091,0.013,0.319,0.089,0.522,0.195c0.045,0.023,0.063,0.041,0.037,0.082
					c-0.111,0.175-0.23,0.616-0.305,0.824c-0.317,0.894-0.271,1.916-0.212,2.891c0.002,0.023,0.034,0.053,0.058,0.053
					c0.245-0.001,0.414,0,0.733,0c0.014-0.549-0.07-1.121,0.039-1.66c0.148-0.726,0.373-0.757,0.449-0.777
					c0.155,0,0.294,0.161,0.333,0.299c0.195,0.722-0.255,1.42-0.298,2.139c0.286-0.001,0.443,0,0.658,0
					c0.1,0,0.171-0.076,0.265-0.292c0.196-0.45,0.454-0.92,0.545-1.407c0.08-0.375-0.066-0.656-0.328-1.089
					c-0.192-0.318-0.418-0.56-0.961-0.925c-0.114-0.338-0.036-0.398,0-0.724c0.028-0.016,0.344-0.038,0.476-0.018
					c0.588,0.086,0.756,0.142,1.055,0.259c0.53,0.209,0.975,0.507,1.469,0.827c0.029,0.021,0.064-0.002,0.065-0.031
					c0.014-0.225,0.061-0.348,0.072-0.523c-0.356-0.376-0.629-0.616-1.078-0.899c-0.298-0.168-0.799-0.278-1.221-0.364
					c-0.17-0.034-0.222-0.144-0.248-0.238c-0.05-0.176-0.007-0.257,0.002-0.414c0.465-0.054,1.021-0.063,1.247,0.013
					c0.727,0.229,1.623,0.691,2.033,0.959c0.028,0.019,0.063,0.039,0.103,0.039c0.089-0.173,0.015-0.345,0.034-0.523
					c-0.101-0.14-0.897-0.938-0.915-0.953c-0.257-0.214-0.557-0.398-0.869-0.461c-0.515-0.102-1.064-0.108-1.215-0.087
					c-0.095-0.101,0.007-0.248,0.068-0.333c0.074-0.104,0.149-0.197,0.246-0.293c0.222,0.011,0.333,0.005,0.563,0.018
					c0.334,0.01,1.076,0.248,1.521,0.454c0.705,0.328,1.032,0.582,1.124,0.713c0.081-0.268,0.039-0.373,0.104-0.559
					c-0.268-0.324-0.653-0.719-0.923-0.909c-0.405-0.288-0.962-0.607-1.921-0.898c-0.231-0.068-0.556-0.114-0.816-0.143
					c-0.612,1.057-0.986,2.215-1.451,3.35c-0.079,0.193-0.222,0.659-0.222,0.693c-0.123-0.007-0.565-0.209-0.602-0.23
					c-0.177-0.11-1.103-0.363-1.608,0.444c-0.045,0.071-0.122,0.22-0.191,0.192c-0.219-0.079-0.504-0.209-0.876-0.159
					c-0.536,0.07-0.982,0.38-1.28,0.842c-0.185,0.287-0.257,0.6-0.218,0.935c-0.329,0.137-0.604,0.489-0.696,0.801
					c-0.189,0.629,0.364,1.714,0.586,1.935L74.532,28.985z"/>
				<path class="st0" d="M86.515,21.803c-0.182,0.004-0.249-0.048-0.386,0.018c-0.022,0.327,0.174,0.585,0.25,0.904
					c0.018,0.072,0.199,0.142,0.233,0.171c0.3,0.264,0.667,0.408,0.743,0.45c0.028,0.018,0.043-0.028,0.027-0.06
					c-0.038-0.079-0.098-0.348-0.106-0.384c-0.081-0.386-0.116-0.716-0.208-1.097c-0.014-0.064-0.094-0.055-0.133-0.046
					C86.783,21.799,86.663,21.799,86.515,21.803z"/>
				<path class="st0" d="M88.607,21.39c-0.16-0.022-0.305-0.048-0.454,0.013c0.086,0.188,0.109,0.391,0.139,0.592
					c0.242,0.28,0.559,0.46,0.878,0.65c0.077,0.044,0.117-0.095,0.111-0.123c-0.042-0.333-0.126-0.642-0.205-0.977
					c-0.006-0.025,0.004-0.098-0.054-0.105C88.883,21.42,88.745,21.408,88.607,21.39z"/>
				<path class="st0" d="M91.2,28.985c0.06,0,0.064-0.037,0.083-0.091c0.081-0.215,0.029-0.334,0.147-0.589
					c0.079,0.025,0.272,0.055,0.394,0.067c0.107,0.013,0.221,0.016,0.295-0.013c0.214-0.086,0.35-0.298,0.529-0.438
					c-0.268-0.206-0.63-0.223-0.938-0.354c-0.042-0.021-0.094-0.058-0.1-0.101c-0.085-0.561,0.065-0.623,0.062-0.94
					c-0.039-0.409-0.513-0.579-0.913-0.684c-0.188-0.051-0.479-0.088-0.608-0.03c-0.176,0.08-0.318,0.171-0.466,0.293
					c-0.061,0.048-0.07,0.048-0.119-0.015c-0.092-0.11-0.292-0.243-0.451-0.287c-0.146-0.042-0.342-0.092-0.524-0.01
					c-0.054,0.022-0.154,0.043-0.154,0.043s0.051-0.119,0.095-0.188c0.091-0.145,0.152-0.232,0.242-0.359
					c0.044-0.063,0.258-0.261,0.329-0.29c0.204-0.086,0.384-0.07,0.601-0.012c0.372,0.099,0.646,0.16,0.72,0.182
					c0.093,0.026,0.288,0.16,0.335,0.12c0.183-0.151,0.226-0.236,0.356-0.29c0.419-0.09,0.907-0.168,1.212-0.162
					c0.021,0,0.551,0.625,0.75,0.898c0.096,0.132,0.577,0.783,0.896,1.383c0.141-0.022,0.263-0.027,0.419-0.07
					c0.007-0.125-0.207-0.624-0.244-0.732c-0.213-0.655-0.299-0.89-0.278-1.097c0.112,0.007,0.131,0.021,0.274,0.069
					c0.141,0.043,0.354,0.123,0.593,0.271c0.104,0.062,0.222,0.128,0.275,0.237c0.119,0.254,0.143,0.531,0.229,0.795
					c0.027,0.086,0.061,0.179,0.126,0.248c0.186-0.477,0.405-0.526,0.594-0.94c-0.14-0.637-0.52-0.952-0.945-1.179
					c-0.149-0.078-1.536-0.773-1.775-0.734c-0.504,0.051-0.984,0.149-1.499,0.292c-0.056,0.007-0.131,0.012-0.156-0.045
					c-0.111-0.224,0.071-0.479,0.204-0.696c0.098-0.159,0.613-0.243,0.865-0.234c0.768,0.034,1.283,0.18,1.489,0.241
					c0.099,0.03,0.26,0.116,0.354,0.155c0.05,0.021,0.093,0.044,0.139,0.069c0.031,0.019,0.062-0.006,0.064-0.032
					c0.021-0.234-0.122-0.421-0.205-0.627c-0.273-0.121-0.559-0.197-0.843-0.3c-0.365-0.13-0.5-0.204-1.077-0.28
					c-0.196-0.025-0.26-0.015-0.448,0.031c-0.033,0.01-0.138,0.043-0.226,0.069c-0.005-0.109,0.054-0.185,0.099-0.248
					c0.143-0.21,0.347-0.359,0.508-0.55c0.108,0,0.22,0.021,0.327,0.013c0.358-0.028,0.696-0.018,0.839,0.007
					c0.231,0.04,0.293,0.14,0.643,0.261c0.067,0.025,0.157,0.071,0.214,0.071c0.024,0,0.002-0.181-0.016-0.244
					c-0.039-0.155,0.035-0.254-0.026-0.396c-0.018-0.043-0.096-0.124-0.31-0.204c-0.285-0.107-0.486-0.167-0.834-0.356
					c-0.167-0.081-0.674-0.203-1.008-0.092c-0.418,0.142-0.49,0.178-0.736,0.231c-0.342,0.528-0.542,1.13-0.787,1.714
					c-0.036,0.084-0.171,0.426-0.253,0.693c-0.059,0.191-0.125,0.447-0.139,0.527c-0.016,0.09-0.06,0.225-0.078,0.222
					c-0.331-0.066-1.684-0.336-2.066,0.058c-0.126,0.13-0.292,0.335-0.476,0.769c-0.365-0.216-0.585-0.329-0.876-0.317
					c-0.376,0.016-0.833,0.264-1.03,0.631c-0.043,0.081-0.585,1.225-0.543,2.247c0.059,0.578,0.266,0.878,0.585,1.319l0.799-0.001
					c0.014-0.007,0.032-0.023,0.032-0.033c-0.024-0.255-0.227-0.648-0.361-1.1c-0.083-0.384,0.059-1.12,0.18-1.675
					c0.011-0.051,0.011-0.089,0.073-0.104c0.104-0.028,0.17-0.023,0.33-0.096c0.203-0.091,0.27-0.127,0.496-0.108
					c0.026,0.002,0.054,0.041,0.031,0.062c-0.293,0.277-0.279,0.646-0.344,1.051c-0.021,0.23,0.271,1.351,0.569,2.004
					c0.211,0,0.396,0,0.641-0.001c0.026,0,0.043-0.028,0.037-0.064c-0.093-0.58-0.211-1.439-0.149-1.63
					c0.065-0.299,0.109-0.523,0.192-0.763c0.148,0.063,0.307,0.1,0.45,0.18c0.247,0.141,0.239,0.274,0.225,0.518
					c-0.024,0.41,0.018,0.482-0.045,0.716c-0.04,0.154-0.04,0.219-0.046,0.369c-0.004,0.206-0.007,0.453,0.049,0.6
					c0.013,0.03,0.017,0.075,0.071,0.075c0.198,0,0.317,0,0.55,0.001c0.051-0.716,0.09-0.652,0.147-1
					c0.002-0.01-0.007-0.465,0.071-0.688c0.043-0.117,0.129-0.28,0.22-0.362c0.188-0.171,0.325-0.186,0.643-0.06
					c-0.028,0.221-0.015,0.44-0.048,0.659c-0.062,0.391-0.204,0.737-0.312,1.115c-0.034,0.124-0.057,0.234-0.145,0.335H91.2z"/>
				<path class="st0" d="M95.989,22.251c-0.124-0.085-0.246-0.156-0.376-0.222c-0.064,0.065-0.006,0.146-0.005,0.265
					c0.007,0.336,0.04,0.364,0.028,0.536c-0.011,0.174-0.069,1.129-0.094,1.431c0.214,0.161,0.465,0.238,0.697,0.383
					c0.032,0.017,0.062-0.007,0.064-0.035c0.06-0.603,0.21-1.091,0.118-1.675c-0.023-0.158-0.088-0.294-0.128-0.445
					C96.259,22.358,96.103,22.325,95.989,22.251z"/>
				<path class="st0" d="M94.915,28.985c0.027-0.005,0.057-0.034,0.064-0.062c0.073-0.279,0.109-0.51,0.137-0.793
					c0.007-0.078,0.049-0.17-0.026-0.244c-0.136,0.068-0.248,0.121-0.391,0.174c-0.085,0.029-0.238,0.023-0.26,0.109
					c-0.04,0.153-0.063,0.223-0.095,0.375c-0.08,0.149-0.178,0.269-0.225,0.35c-0.018,0.027-0.021,0.094,0.027,0.092H94.915z"/>
				<path class="st0" d="M81.701,27.435c-0.023,0.022-0.06,0.043-0.062,0.07c-0.056,0.504-0.272,0.814-0.443,1.157
					c-0.055,0.098-0.14,0.214-0.051,0.323c0.395-0.001,0.679,0.002,1.074,0c0.068-0.001,0.044-0.473,0.044-0.476
					c-0.001-0.167-0.011-0.343-0.003-0.553C82.145,27.816,81.744,27.498,81.701,27.435z"/>
				<path class="st0" d="M102.998,12.451c-0.339,0.132-0.578,0.437-0.613,0.796c-0.141,1.402,1.048,4.861,1.778,6.389
					c0.199,0.416,0.264,0.629,0.278,0.998c0.037,1.009-0.773,2.795-1.306,3.768c-0.159-0.025-0.824-0.188-1.148-0.028
					c-0.382,0.188-0.651,0.515-0.805,0.9c-0.209-0.055-0.33-0.114-0.627-0.135c-0.272,0.005-0.365,0.023-0.729,0.211
					c-0.54,0.281-0.904,0.767-0.954,1.445c0.014,0.936,0.262,1.496,0.671,2.19c0.272,0,0.421,0,0.7,0
					c-0.051-0.213-0.279-1.358-0.348-1.725c-0.074-0.392,0.116-0.685,0.362-0.946c0.2-0.214,0.386-0.142,0.521-0.142
					c0.212,0,0.221,0.045,0.171,0.152c-0.197,0.403-0.247,0.664-0.22,1.284c0.055,0.389,0.18,0.918,0.311,1.347
					c0.012,0.034,0.064,0.038,0.103,0.031c0.014-0.003,0.552,0.001,0.556-0.002c0.058-0.037,0.04-0.122,0.033-0.189
					c-0.042-0.396-0.026-0.723-0.015-1.082c0.016-0.379,0.031-0.756,0.127-1.116c0.17-0.477,0.291-1.049,0.768-1.29
					c0.152-0.055,0.348-0.001,0.492,0.023c0.202,0.031,0.247,0.062,0.55,0.061c0.073-0.001,0.143-0.448,0.204-0.523
					c0.025-0.033,0.048-0.067,0.146-0.041c0.076,0.021,0.26,0.104,0.338,0.125c0.227,0.057,0.343,0.072,0.555,0.152
					c0.335,0.126,0.628,0.317,0.896,0.581c0.005,0.003,0.04-0.03,0.027-0.063c-0.104-0.274,0.032-0.682-0.183-0.824
					c-0.021-0.016-0.338-0.318-0.661-0.49c-0.164-0.089-0.366-0.104-0.466-0.265c-0.063-0.102-0.043-0.132-0.039-0.27
					c-0.021-0.22,0.017-0.413,0.1-0.439c0.177-0.052,0.253,0.051,0.517,0.16c0.364,0.176,0.675,0.392,0.838,0.523
					c0.046,0.054,0.105,0.144,0.134,0.122c0.109-0.087,0.156-0.174,0.224-0.294c0.051-0.088,0.05-0.14,0.067-0.251
					c0.004-0.059,0.006-0.104-0.013-0.13c-0.288-0.38-0.507-0.51-1.013-0.797c-0.033-0.02-0.238-0.125-0.304-0.155
					c-0.029-0.013-0.13-0.101-0.128-0.173c0.007-0.134,0.208-0.464,0.256-0.526c0.06-0.08,0.182-0.008,0.3,0.071
					c0.313,0.21,0.658,0.244,0.993,0.437c0.074,0.044,0.145,0.115,0.221,0.151c0.033,0.013,0.021-0.085,0.008-0.118
					c-0.089-0.222,0.039-0.362-0.091-0.527c-0.15-0.194-0.363-0.408-0.564-0.5c-0.259-0.095-0.416-0.156-0.647-0.237
					c-0.033-0.251-0.092-0.489-0.161-0.735c-0.045-0.156,0.161-0.095,0.265-0.108c0.37-0.052,1.244,0.233,1.459,0.367
					c0.038,0.024,0.139,0.05,0.136-0.014c-0.002-0.264-0.049-0.474-0.238-0.657c-0.129-0.126-0.303-0.302-0.664-0.43
					c-0.309-0.076-0.449-0.069-0.805-0.044c-0.258-0.021-0.37-0.055-0.547-0.133c-0.078-0.034-0.131-0.132-0.161-0.206
					c-0.089-0.215-0.244-0.392-0.294-0.621c0.193,0.026,0.353,0.021,0.605-0.011c0.15-0.021,0.226-0.035,0.466-0.048
					c0.41,0.035,0.911,0.188,1.191,0.278c0.19,0.064,0.354,0.205,0.562,0.226c0.021,0.001,0.063-0.049,0.058-0.055
					c-0.167-0.246-0.208-0.515-0.374-0.739c-0.211-0.046-0.422-0.11-0.62-0.19c-0.771-0.305-1.028-0.543-1.504-0.43
					c-0.247,0.06-0.461,0.021-0.699-0.007c-0.077-0.266-0.158-0.53-0.208-0.802c0.208,0.008,0.351,0.075,0.58-0.024
					c0.004-0.003,0.126-0.037,0.152-0.039c0.443-0.046,0.804,0.067,1.232,0.206c0.133,0.042,0.299,0.149,0.438,0.13
					c0.027-0.002,0.049-0.031,0.033-0.062c-0.133-0.279-0.244-0.568-0.45-0.804c-0.178-0.092-0.41-0.158-0.697-0.209
					c-0.312-0.038-0.578-0.009-0.835,0.005c-0.25,0.013-0.459-0.036-0.664-0.108c-0.132-0.197-0.268-0.418-0.279-0.664
					c0.239,0.032,0.348-0.011,0.581-0.096c0.112-0.04,0.529-0.059,0.459-0.059c0.487-0.002,0.649,0.052,0.65,0.053
					c0.197,0.068,0.265,0.052,0.367-0.003c-0.076-0.119-0.185-0.218-0.259-0.34c-0.297-0.505-0.667-0.604-1.221-0.573
					c-0.271,0.014-0.464,0.199-0.752,0.143c-0.027-0.005-0.04-0.03-0.034-0.065c0.067-0.396,0.126-0.626,0.312-0.873
					c0.13-0.127,0.258-0.19,0.453-0.2c1.748-0.078,3.509,1.775,4.613,4.729c1.168,3.131,0.914,5.984,0.583,8.022
					c0.176,0.09,0.364,0.126,0.558,0.14c0.366-1.396,0.46-2.727,0.384-4.288c-0.354-4.706-2.338-8.266-4.803-9.227
					C104.379,12.234,103.746,12.158,102.998,12.451z"/>
				<path class="st0" d="M102.628,27.58c-0.104,0.544-0.121,0.997-0.055,1.338c0.011,0.06-0.015,0.07,0.043,0.067
					c0.025-0.001,0.354,0.003,0.623,0c0.161-0.283,0.162-0.608,0.257-0.919c0.04-0.138,0.155-0.153,0.337-0.144
					c0.155,0.02,0.597,0.388,0.766,0.523c0.103-0.144,0.09-0.401,0.051-0.625c-0.008-0.048-0.234-0.197-0.26-0.21
					c-0.267-0.138-0.441-0.339-0.73-0.281c-0.026-0.307,0.132-0.392,0.318-0.624c0-0.003,0.08-0.092,0.106-0.121
					c0.261,0.024,0.253,0.067,0.388,0.149c0.056,0.032,0.324,0.216,0.521,0.392c0.017,0.016,0.115,0.133,0.126,0.126
					c0.18-0.107,0.199-0.337,0.352-0.48c-0.251-0.593-0.944-0.915-1.46-1.173c-0.174-0.085-0.314-0.104-0.449-0.01
					C103.246,25.811,102.893,26.187,102.628,27.58z"/>
				<path class="st0" d="M107.767,22.354c-0.094-0.027-0.193-0.056-0.274-0.113c-0.062,0.204-0.078,0.417-0.06,0.625
					c0.011,0.137,0.017,0.206,0.142,0.276c0.182,0.098,0.449,0.251,0.561,0.367c0.271,0.282,0.127-0.797,0.027-0.982
					C108.117,22.441,107.938,22.405,107.767,22.354z"/>
				<path class="st0" d="M107.771,24.551c-0.025-0.03-0.33-0.238-0.39-0.276c-0.114-0.076-0.17-0.136-0.271-0.188
					c-0.036,0.098-0.047,0.139-0.084,0.25c-0.045,0.19-0.138,0.317-0.08,0.479c0.035,0.1,0.171,0.146,0.264,0.205
					c0.083,0.056,0.517,0.415,0.598,0.498c0.062-0.141,0.095-0.484,0.051-0.765C107.848,24.673,107.814,24.608,107.771,24.551z"/>
				<path class="st0" d="M109.974,27.681c-0.065,0.238-0.14,0.447-0.183,0.607c-0.01,0.036-0.027,0.094-0.033,0.158
					c0.23,0.103,0.31,0.089,0.578,0.052c0.19,0.003,0.331,0.062,0.363,0.052c0.173-0.055,0.022-0.223-0.003-0.277
					c-0.01-0.027-0.335-0.691-0.56-0.974c-0.018-0.023-0.055,0.005-0.061,0.031C110.047,27.453,110.008,27.559,109.974,27.681z"/>
				<path class="st0" d="M108.293,28.103c-0.105-0.014-0.234-0.041-0.299,0.041c-0.188,0.231-0.249,0.58-0.376,0.842
					c0.351,0.002,0.577,0,0.909,0c0.045,0,0.058-0.026,0.095-0.062c0.101-0.153,0.19-0.297,0.217-0.479
					c0.011-0.072-0.025-0.238-0.19-0.285C108.644,28.157,108.389,28.114,108.293,28.103z"/>
				<path class="st0" d="M106.412,27.997c-0.231,0.005-0.481,0.113-0.536,0.376c-0.039,0.188-0.166,0.332-0.265,0.49
					c0.056,0.118,0.155,0.118,0.268,0.121c0.114,0.004,0.379,0.001,0.729,0.001c0.075-0.128,0.107-0.305,0.146-0.447
					c0.049-0.193,0.094-0.354,0.127-0.549c0.004-0.016-0.01-0.134-0.083-0.095C106.674,27.962,106.546,27.994,106.412,27.997z"/>
				<path class="st0" d="M99.584,22.594c0.059-0.182,0.223-0.713,0.274-0.911c-0.113-0.119-0.207-0.348-0.237-0.508
					c-0.021-0.118-0.03-0.256-0.085-0.433c-0.009-0.028-0.052-0.065-0.056-0.062c-0.051,0.035-0.457,0.393-0.565,0.514
					c0.042,0.307,0.126,0.605,0.188,0.905c0.019,0.092,0.128,0.613,0.148,0.792c0.008,0.059,0.028,0.071,0.065,0.068
					c0.087-0.009,0.167-0.047,0.209-0.101C99.602,22.75,99.561,22.674,99.584,22.594z"/>
				<path class="st0" d="M100.642,19.144c-0.082-0.215-0.348-0.639-0.492-0.825c-0.155-0.201-0.208-0.555-0.227-0.785
					c-0.003-0.025-0.031-0.048-0.064-0.034c-0.08,0.034-0.142,0.058-0.224,0.073c-0.051,0.01-0.253,0.055-0.296,0.061
					c-0.105,0.014-0.217,0.012-0.318,0.039c0.246,0.357,0.566,0.85,0.759,1.362c0.126,0.333,0.189,0.554,0.261,0.795
					c0.051,0.183,0.098,0.379,0.232,0.618c0.015,0.027,0.262,0.574,0.286,0.676c0.007,0.028,0.046,0.06,0.062,0.031
					c0.073-0.142,0.132-0.37,0.186-0.483c0.047-0.103,0.091-0.157,0.201-0.279c0.002-0.22-0.078-0.429-0.171-0.623
					C100.76,19.604,100.682,19.251,100.642,19.144z"/>
				<path class="st0" d="M102.433,19.626c-0.033-0.204-0.022-0.403-0.099-0.595c-0.232,0.021-0.236,0.053-0.404,0.078
					c-0.137,0.021-0.182-0.004-0.435,0.062c0.051,0.174,0.086,0.289,0.153,0.456c0.05,0.119,0.159,0.46,0.168,0.981
					c0,0.024,0.038,0.086,0.043,0.083c0.198-0.138,0.299-0.407,0.509-0.476C102.364,20.018,102.466,19.832,102.433,19.626z"/>
				<path class="st0" d="M101.943,17.986c-0.002-0.145-0.008-0.256-0.064-0.419c-0.074-0.164-0.284-0.388-0.452-0.557
					c-0.15-0.021-0.21,0.012-0.279,0.005c-0.163-0.015-0.254-0.04-0.417,0s-0.07,0.171,0.006,0.304
					c0.266,0.297,0.355,0.618,0.451,1.014c0.006,0.029,0.041,0.064,0.064,0.063c0.224-0.011,0.324-0.15,0.658-0.145
					C102.052,18.255,101.946,18.09,101.943,17.986z"/>
				<path class="st0" d="M97.312,14.081c-0.03,0.108-0.066,0.196,0.033,0.383c0.396,0.417,0.417,0.423,0.657,0.903
					c0.047,0.094,0.342,0.561,0.476,1.118c0.062,0.254,0.124,0.332,0.363,0.322c0.182-0.007,0.38,0.025,0.532,0.052
					c0.053,0.007,0.045-0.075,0.046-0.095c0.04-0.338-0.201-0.764-0.218-0.795c-0.071-0.149-0.143-0.299-0.182-0.459
					c0.046,0.009,0.176,0.023,0.544,0.045c0.09,0.004,0.283-0.015,0.375-0.045c0.046-0.016,0.032,0,0.042,0.021
					c0.023,0.076,0.033,0.152,0.085,0.231c0.13,0.228,0.25,0.434,0.384,0.655c0.117-0.012,0.186-0.046,0.282-0.065
					c0.122-0.022,0.241-0.031,0.365-0.062c0.089-0.023,0.067-0.051,0.063-0.065c-0.05-0.142-0.098-0.276-0.154-0.406
					c-0.069-0.164-0.167-0.316-0.281-0.483c-0.004-0.007,0.051-0.073,0.073-0.083c0.062-0.025,0.2-0.012,0.25-0.016
					c0.51-0.01,0.592-0.032,0.598-0.033c0.197-0.025,0.373-0.097,0.477-0.152c0.023-0.014,0.065-0.05,0.06-0.058
					c-0.037-0.069-0.079-0.138-0.124-0.201c-0.039-0.054-0.291-0.318-0.397-0.381c-0.073-0.042-0.176,0.023-0.271,0.043
					C100.111,14.71,98.53,14.518,97.312,14.081z"/>
				<path class="st0" d="M96.858,11.989c-0.101-0.446-0.118-0.533-0.175-0.746c-0.069-0.276-0.098-0.621-0.244-0.857
					c-0.189,0.098-0.261,0.099-0.436,0.131c-0.172,0.051-0.324,0.094-0.316,0.145c0.086,0.565,0.354,1.372,0.386,2.273
					c0.008,0.217-0.029,0.408,0.024,0.621c0.012,0.042,0.059,0.082,0.101,0.103c0.027,0.014,0.183,0.047,0.212,0.06
					c0.199,0.071,0.386,0.183,0.589,0.254c0.042,0.014,0.093,0.011,0.138,0c0.028-0.006,0.047-0.031,0.036-0.066
					c-0.08-0.267-0.089-0.598-0.138-0.869C97.001,12.836,96.939,12.416,96.858,11.989z"/>
				<path class="st0" d="M97.938,17.237c-0.1-0.168-0.188-0.312-0.349-0.438c-0.013,0.027-0.087,0.161-0.095,0.179
					c-0.098,0.178-0.199,0.354-0.322,0.52c0.045,0.12,0.117,0.246,0.186,0.354c0.086,0.131,0.107,0.175,0.221,0.339
					c0.022,0.035,0.128,0.225,0.15,0.248c0.049-0.078,0.076-0.159,0.132-0.226c0.033-0.036,0.134-0.117,0.163-0.16
					c0.062-0.092,0.076-0.159,0.104-0.258c0.032-0.113,0.037-0.162-0.062-0.288C97.985,17.405,97.971,17.295,97.938,17.237z"/>
				<path class="st0" d="M98.981,19.677c0.014-0.072,0.021-0.146,0.01-0.223c-0.01-0.062-0.132-0.319-0.161-0.387
					c-0.088-0.194-0.185-0.367-0.344-0.511c-0.022-0.021-0.132,0.339-0.192,0.454c-0.073,0.146-0.096,0.118-0.215,0.44
					c0.135,0.165,0.248,0.354,0.347,0.542c0.039,0.076,0.061,0.161,0.104,0.237c0.022,0.037,0.116,0.164,0.142,0.195
					c0.042-0.039,0.061-0.147,0.097-0.195C98.821,20.158,98.958,19.8,98.981,19.677z"/>
				<path class="st0" d="M98.297,22.095c-0.046-0.127-0.141-0.679-0.184-1.146c-0.056-0.145-0.233-0.358-0.384-0.523
					c-0.107,0.149-0.221,0.296-0.301,0.46c-0.035,0.071-0.025,0.147-0.004,0.223c0.006,0.015,0.268,0.75,0.325,0.927
					c0.068,0.216,0.079,0.455,0.188,0.657c0.108-0.146,0.242-0.269,0.336-0.427C98.305,22.217,98.327,22.184,98.297,22.095z"/>
				<path class="st0" d="M83.184,2.811c0.214-0.02,0.498,0.149,0.667,0.219c0.188,0.076,0.438,0.192,0.664,0.361
					c0.283,0.213,0.424,0.518,0.568,0.822c0.223-0.02,0.41-0.023,0.66,0.012c0.355,0.045,0.692,0.149,1.024,0.273
					c0.032,0.012,0.134,0.067,0.155,0.076c0.512-0.361,1.167-0.563,1.8-0.485c0.062,0.004,0.076,0.001,0.078-0.068
					c0.029-0.263,0.276-0.62,0.382-0.758c0.22-0.292,0.43-0.404,0.74-0.466c0.368-0.074,0.935,0.097,1.466,0.349
					c0.378,0.181,0.536,0.647,0.568,0.729c0.117,0.303,0.096,0.717,0.047,1.179c-0.025,0.246-0.068,0.527-0.077,0.572
					c-0.06,0.349-0.413,0.504-0.647,0.586c-0.024,0.009-0.114,0.029-0.128,0.076c-0.1,0.358-0.027,0.846-0.086,1.234
					c-0.035,0.228-0.135,0.436-0.16,0.666c0.179-0.046,0.312-0.225,0.525-0.175c-0.155,0.92-0.393,0.804-0.604,1.252
					c-0.133,0.285-0.224,0.642-0.443,0.91c-0.071,0.08-0.204,0.194-0.443,0.326c-0.095,0.053,0.021,0.162,0.064,0.172
					c0.313,0.071,0.521,0.117,0.827,0.172c0.109,0.02,0.728,0.129,1.038,0.224c0.341,0.102,0.676,0.262,0.961,0.401
					c0.087,0.043-0.024,0.28-0.111,0.518c-0.4-0.193-0.691-0.328-1.115-0.446c-0.315-0.098-0.779-0.181-0.93-0.216
					c-0.202-0.045-0.438-0.094-0.639-0.14c-0.017,0.141-0.105,0.501-0.103,0.551c0.071,0.03,0.119,0.046,0.143,0.055
					c0.238,0.082,0.463,0.195,0.694,0.295c0.176,0.075,1.344,0.643,1.739,0.877c-0.035,0.085-0.06,0.189-0.078,0.283
					c-0.018,0.108-0.06,0.201-0.124,0.19c-0.086-0.013-0.141-0.033-0.215-0.076c-0.238-0.134-0.988-0.556-1.159-0.656
					c-0.479-0.258-0.656-0.348-1.179-0.543c-0.143,0.171-0.229,0.38-0.427,0.5c-0.13,0.079-0.647-0.375-0.971-0.523
					c-0.236-0.109-0.65-0.24-0.926-0.274c-0.096-0.013-0.112-0.132-0.142-0.248c-0.057-0.215-0.103-0.467-0.041-0.499
					c0.341-0.172,0.509-0.486,0.523-0.684c0.007-0.07,0.04-0.107,0.095-0.09c0.116,0.035,0.22,0.147,0.382,0.026
					c0.134-0.101,0.186-0.268,0.163-0.42c-0.026-0.159-0.12-0.28-0.262-0.328c-0.784-0.271-1.597-0.245-2.363,0.044
					c-0.228,0.086-0.206,0.361-0.145,0.574c0.084,0.283,0.413,0.167,0.586,0.048c0.089-0.061-0.025,0.197,0.095,0.413
					c0.18,0.323,0.472,0.387,0.474,0.454c0.009,0.225-0.024,0.244-0.045,0.391c-0.024,0.167-0.022,0.313-0.21,0.347
					c-0.436,0.079-0.835,0.237-1.242,0.392c-0.234,0.089-0.447,0.319-0.67,0.321c-0.188,0.003-0.3-0.305-0.443-0.362
					c-0.142-0.054-0.151-0.08-0.407,0.017c-0.791,0.299-1.833,0.811-2.566,1.26c-0.16-0.155-0.131-0.368-0.174-0.559
					c0.831-0.535,1.728-0.947,2.632-1.364c0.075-0.035,0.021-0.318-0.036-0.397c-0.032-0.045-0.522-0.005-1.5,0.24
					c-0.667,0.166-1.342,0.479-1.382,0.495c-0.036,0.015-0.079-0.078-0.085-0.126c-0.021-0.139-0.14-0.329-0.031-0.385
					c0.474-0.253,0.987-0.413,1.492-0.546c0.512-0.135,1.013-0.243,1.524-0.321c-0.008-0.037-0.022-0.173-0.036-0.205
					c-0.196-0.494-0.633-0.87-0.999-1.269C82.537,9,82.465,8.891,82.448,8.777c-0.026-0.166-0.146-0.425-0.09-0.479
					c0.071-0.068,0.128,0.031,0.293,0.077c0.022,0.006,0.134,0.021,0.166,0.021c-0.036-0.281-0.091-0.553-0.128-0.837
					c-0.043-0.334-0.023-0.862,0.033-1.267c0.01-0.076,0.02-0.104-0.05-0.191c-0.055-0.069-0.386-0.238-0.429-0.248
					c-0.174-0.031-0.242-0.078-0.33-0.247c-0.174-0.334-0.445-0.631-0.434-1.009c0.01-0.371,0.152-0.73,0.3-1.078
					c0.114-0.276,0.448-0.3,0.693-0.448C82.695,2.939,82.956,2.832,83.184,2.811z M85.881,5.953c0.17-0.244,0.294-0.476,0.485-0.7
					c0.033-0.038,0.025-0.086-0.028-0.095c-0.166-0.027-0.308-0.041-0.45,0.002c-0.173,0.049-0.388,0.174-0.627,0.348
					c-0.229,0.167-0.387,0.298-0.387,0.518c0.053-0.002,0.34-0.006,0.427,0C85.626,6.047,85.748,6.147,85.881,5.953z M83.481,6.677
					c-0.052,0.003-0.049,0.088-0.029,0.11c0.125,0.15,0.289,0.267,0.473,0.358c0.117,0.058,0.12,0.224,0.192,0.311
					c0.139,0.171,0.358,0.311,0.652,0.278c0.195-0.022,0.235-0.036,0.359-0.12c0.06-0.042,0.07,0.008,0.076,0.055
					c0.028,0.175,0.039,0.379,0.028,0.551c-0.006,0.104,0.033,0.686-0.255,0.735c-0.214,0.075-0.534,0.275-0.689,0.493
					c-0.123,0.174-0.23,0.615-0.031,0.726c0.164,0.091,0.306-0.181,0.586-0.25c0.199-0.051,0.189-0.214,0.318-0.404
					c0.122-0.181,0.454-0.276,0.48-0.392c0.02-0.08-0.002-0.166,0.003-0.248c0.051-0.705,0.087-0.803,0.181-1.281
					c0.012-0.062,0.031-0.512,0.032-0.562c0.001-0.182-0.154-0.344-0.332-0.382c-0.055-0.012-0.207-0.061-0.436-0.023
					c-0.179,0.028-0.407,0.017-0.577,0.008C84.172,6.623,83.819,6.651,83.481,6.677z M88.279,6.658
					c-0.226,0.065-0.391,0.24-0.411,0.335c-0.008,0.04,0.015,0.256,0.013,0.314c-0.003,0.12,0.025,0.236,0.038,0.353
					c0.012,0.109,0.009,0.219,0.031,0.327c0.075,0.331,0.118,0.662,0.118,1.002c0.214,0.167,0.317,0.166,0.437,0.286
					c0.13,0.13,0.215,0.296,0.273,0.481c0.323,0.091,0.628,0.296,0.891,0.506c0.051-0.031,0.27-0.376,0.338-0.502
					c0.013-0.022,0.069-0.121,0.084-0.143c-0.23-0.198-0.57-0.241-0.822-0.393c-0.024-0.015-0.121-0.072-0.146-0.096
					c-0.152-0.16-0.202-0.498-0.48-0.531c-0.039-0.006-0.089-0.023-0.095-0.095c-0.014-0.164-0.107-0.76-0.12-0.88
					c-0.005-0.078-0.015-0.136-0.022-0.218c-0.001-0.021,0.011-0.03,0.026-0.017c0.198,0.268,0.479,0.299,0.646,0.309
					c0.256,0.015,0.534-0.112,0.653-0.344c0.039-0.036,0.057-0.195,0.168-0.237c0.139-0.052,0.296-0.133,0.4-0.229
					c0.03-0.03,0.101-0.156,0.119-0.197c0.013-0.032-0.009-0.062-0.034-0.065c-0.254-0.026-0.501-0.032-0.749-0.023
					c-0.18,0.007-0.651,0.002-0.719-0.003c-0.116-0.008-0.258-0.001-0.366,0.01C88.504,6.612,88.327,6.645,88.279,6.658z
					 M91.317,5.039c0.111-0.422,0.154-0.962-0.052-1.293c-0.126-0.182-0.256-0.205-0.604-0.287c-0.284-0.067-0.638-0.02-0.807,0.217
					c-0.16,0.228-0.387,0.527-0.308,0.815c0.509,0.19,0.741,0.773,1.265,0.901C91.01,5.441,91.27,5.222,91.317,5.039z
					 M88.514,11.217c0.072,0.019,0.164,0.043,0.235,0.068c0.164,0.053,0.128,0.074,0.212,0.107c0.154,0.059,0.326,0.107,0.481,0.144
					c0.005-0.053,0.008-0.114,0.021-0.166c0.03-0.114,0.093-0.174,0.029-0.313c-0.012-0.027-0.116-0.032-0.185-0.024
					c-0.112,0.014-0.277-0.032-0.411-0.009c-0.032,0.006-0.086,0.023-0.143,0.034C88.68,11.072,88.511,11.107,88.514,11.217z
					 M84.435,11.069c-0.041,0.026-0.088,0.057-0.073,0.146c0.005,0.027,0.018,0.089,0.027,0.114
					c0.008,0.022,0.011,0.099,0.067,0.205c0.213-0.071,0.283-0.125,0.439-0.186c0.058-0.023,0.13-0.031,0.182-0.063
					c0.078-0.046,0.156-0.123,0.215-0.206c-0.147-0.045-0.288-0.074-0.452-0.066C84.688,11.023,84.538,11.003,84.435,11.069z
					 M84.317,4.503c0.062-0.024,0.054-0.101,0.041-0.15c-0.144-0.556-0.31-0.566-0.601-0.721c-0.19-0.087-0.344-0.135-0.519-0.105
					c-0.275,0.047-0.802,0.218-0.969,0.633c-0.048,0.118-0.076,0.405,0.095,0.729c0.171,0.316,0.459,0.506,0.671,0.641
					c0.095,0.06,0.142-0.075,0.164-0.12c0.031-0.065,0.336-0.367,0.467-0.476C83.84,4.788,84.285,4.515,84.317,4.503z M88.982,5.891
					c0.134-0.073,0.007-0.301-0.104-0.339c-0.101-0.036-0.182-0.123-0.264-0.224c-0.051-0.066-0.135-0.146-0.221-0.168
					c-0.34-0.091-0.482-0.109-0.699-0.065c-0.066,0.014-0.227,0.038-0.18,0.101c0.027,0.033,0.078,0.037,0.131,0.114
					c0.058,0.083,0.191,0.093,0.287,0.14c0.128,0.063,0.145,0.327,0.176,0.451c0.013,0.058,0.071,0.066,0.15,0.073
					c0.109,0.008,0.41,0.01,0.486-0.038C88.812,5.891,88.913,5.929,88.982,5.891z"/>
			</g>
		</g>
	</g>
</g>
<g id="Laag_2">
</g>
</svg>
